<svg xmlns="http://www.w3.org/2000/svg" fill="none" viewBox="0 0 88 100" class="design-iconfont">
  <defs>
    <filter id="4i3t4u4s9__p2fby2emha">
      <feColorMatrix values="0 0 0 0 1 0 0 0 0 1 0 0 0 0 1 0 0 0 1 0"/>
    </filter>
    <filter id="4i3t4u4s9__nksun1qsic" width="160" height="160" x="-30" y="-20" filterUnits="userSpaceOnUse" color-interpolation-filters="sRGB">
      <feFlood flood-opacity="0" result="BackgroundImageFix"/>
      <feColorMatrix result="hardAlpha" in="SourceAlpha" values="0 0 0 0 0 0 0 0 0 0 0 0 0 0 0 0 0 0 127 0"/>
      <feOffset dy="9"/>
      <feGaussianBlur stdDeviation="10"/>
      <feComposite k2="-1" k3="1" in2="hardAlpha" operator="out"/>
      <feColorMatrix values="0 0 0 0 0.961711 0 0 0 0 0.559616 0 0 0 0 0.138542 0 0 0 0.3 0"/>
      <feBlend result="effect_dropShadow_1" in2="BackgroundImageFix"/>
      <feBlend result="shape" in="SourceGraphic" in2="effect_dropShadow_1"/>
    </filter>
    <filter id="4i3t4u4s9__4jokfj1dfe" width="75.7910156" height="75.7910156" x="12.1577148" y="13.0429688" filterUnits="userSpaceOnUse" color-interpolation-filters="sRGB">
      <feFlood flood-opacity="0" result="BackgroundImageFix"/>
      <feBlend result="shape" in="SourceGraphic" in2="BackgroundImageFix"/>
      <feColorMatrix result="hardAlpha" in="SourceAlpha" values="0 0 0 0 0 0 0 0 0 0 0 0 0 0 0 0 0 0 127 0"/>
      <feOffset dy="1"/>
      <feGaussianBlur stdDeviation="10.5"/>
      <feComposite k2="-1" k3="1" in2="hardAlpha" operator="arithmetic"/>
      <feColorMatrix values="0 0 0 0 1 0 0 0 0 0.460391 0 0 0 0 0 0 0 0 1 0"/>
      <feBlend result="effect_innerShadow_1" in2="shape"/>
    </filter>
    <filter id="4i3t4u4s9__18h41opkqg" width="45.4133301" height="45.5" x="28.25" y="29.25" filterUnits="userSpaceOnUse" color-interpolation-filters="sRGB">
      <feFlood flood-opacity="0" result="BackgroundImageFix"/>
      <feColorMatrix result="hardAlpha" in="SourceAlpha" values="0 0 0 0 0 0 0 0 0 0 0 0 0 0 0 0 0 0 127 0"/>
      <feOffset dx="1" dy="1"/>
      <feGaussianBlur stdDeviation="1.33333337"/>
      <feComposite k2="-1" k3="1" in2="hardAlpha" operator="out"/>
      <feColorMatrix values="0 0 0 0 1 0 0 0 0 0.627451 0 0 0 0 0 0 0 0 1 0"/>
      <feBlend result="effect_dropShadow_1" in2="BackgroundImageFix"/>
      <feBlend result="shape" in="SourceGraphic" in2="effect_dropShadow_1"/>
    </filter>
    <radialGradient id="4i3t4u4s9__0xcsnkdobf" cx="0" cy="0" r="1" gradientUnits="userSpaceOnUse" gradientTransform="matrix(0 -51.971 51.971 0 50.0533 24.2804)">
      <stop stop-color="#FFDF00" offset="0"/>
      <stop stop-color="#FFB000" offset="1"/>
    </radialGradient>
    <linearGradient id="4i3t4u4s9__cwagyho3dd" x1="50.0000038" x2="50.0000038" y1="1.16364026" y2="101.000008" gradientUnits="userSpaceOnUse">
      <stop stop-color="#FFD400" offset="0"/>
      <stop stop-color="#FFC300" offset="1"/>
    </linearGradient>
  </defs>
  <mask id="4i3t4u4s9__j6xtl3yg1b" width="88" height="100" x="0" y="0" maskUnits="userSpaceOnUse">
    <g filter="url(#4i3t4u4s9__p2fby2emha)">
      <path fill="#FFF" d="M0 0H88V100H0z"/>
    </g>
  </mask>
  <g opacity=".15000001" mask="url(#4i3t4u4s9__j6xtl3yg1b)">
    <g filter="url(#4i3t4u4s9__nksun1qsic)">
      <path fill="url(#4i3t4u4s9__cwagyho3dd)" d="M50 1A50 50 0 1 0 50 101A50 50 0 1 0 50 1Z"/>
    </g>
    <g filter="url(#4i3t4u4s9__4jokfj1dfe)">
      <path fill="url(#4i3t4u4s9__0xcsnkdobf)" d="M50.0532722 13.042968799999997A37.8955574 37.8955574 0 1 0 50.0532722 88.8340836A37.8955574 37.8955574 0 1 0 50.0532722 13.042968799999997Z"/>
      <path d="M87.9488 50.9385C87.9488 51.5587 87.9336 52.1785 87.9031 52.798C87.8729 53.4174 87.8273 54.0357 87.7662 54.653C87.7055 55.2701 87.6297 55.8855 87.5388 56.499C87.4476 57.1124 87.3415 57.7233 87.2204 58.3316C87.0997 58.9398 86.9639 59.5448 86.813 60.1464C86.6624 60.748 86.4971 61.3456 86.317 61.939C86.137 62.5325 85.9425 63.1212 85.7336 63.7052C85.5247 64.289 85.3016 64.8675 85.0642 65.4406C84.8268 66.0137 84.5755 66.5805 84.3104 67.141C84.0452 67.7016 83.7664 68.2554 83.4741 68.8023C83.1818 69.3493 82.8763 69.8889 82.5575 70.4209C82.2387 70.9526 81.9069 71.4764 81.562 71.9922C81.2175 72.508 80.8606 73.0149 80.4913 73.5131C80.1217 74.0112 79.7402 74.4999 79.3468 74.9791C78.9534 75.4586 78.5485 75.9281 78.1321 76.3876C77.7157 76.847 77.2881 77.296 76.8493 77.7345C76.4108 78.1733 75.9618 78.6009 75.5023 79.0173C75.0428 79.4338 74.5733 79.8387 74.0938 80.232C73.6146 80.6254 73.126 81.0069 72.6278 81.3765C72.1297 81.7458 71.6227 82.1028 71.1069 82.4473C70.5911 82.7922 70.0674 83.124 69.5357 83.4427C69.0036 83.7615 68.4641 84.067 67.9171 84.3594C67.3701 84.6517 66.8163 84.9304 66.2558 85.1956C65.6952 85.4608 65.1284 85.7121 64.5553 85.9494C63.9822 86.1868 63.4038 86.41 62.8199 86.6188C62.236 86.8277 61.6472 87.0222 61.0538 87.2023C60.4603 87.3824 59.8627 87.5477 59.2611 87.6982C58.6595 87.8491 58.0546 87.985 57.4463 88.1057C56.8381 88.2267 56.2272 88.3329 55.6137 88.4241C55.0002 88.515 54.3849 88.5908 53.7677 88.6515C53.1505 88.7125 52.5322 88.7581 51.9127 88.7883C51.2933 88.8188 50.6735 88.8341 50.0533 88.8341C49.4331 88.8341 48.8133 88.8188 48.1939 88.7883C47.5744 88.7581 46.9561 88.7125 46.3388 88.6515C45.7217 88.5908 45.1063 88.515 44.4929 88.4241C43.8794 88.3329 43.2685 88.2267 42.6602 88.1057C42.0519 87.985 41.447 87.8491 40.8454 87.6982C40.2438 87.5477 39.6463 87.3824 39.0528 87.2023C38.4593 87.0222 37.8706 86.8277 37.2866 86.6188C36.7027 86.41 36.1242 86.1868 35.5513 85.9494C34.9783 85.7121 34.4115 85.4608 33.8508 85.1956C33.2902 84.9304 32.7364 84.6517 32.1894 84.3594C31.6425 84.067 31.103 83.7615 30.571 83.4427C30.0391 83.124 29.5153 82.7922 28.9996 82.4473C28.484 82.1028 27.9771 81.7458 27.4789 81.3765C26.9808 81.0069 26.492 80.6254 26.0126 80.232C25.5332 79.8387 25.0637 79.4338 24.6042 79.0173C24.1447 78.6009 23.6956 78.1733 23.257 77.7345C22.8185 77.296 22.391 76.847 21.9745 76.3876C21.558 75.9281 21.153 75.4586 20.7596 74.9791C20.3662 74.4999 19.9847 74.0112 19.6153 73.5131C19.2458 73.0149 18.8888 72.508 18.5443 71.9922C18.1997 71.4764 17.868 70.9526 17.5492 70.4209C17.2303 69.8889 16.9247 69.3493 16.6324 68.8023C16.34 68.2554 16.0613 67.7016 15.7961 67.141C15.5309 66.5805 15.2797 66.0137 15.0423 65.4406C14.805 64.8675 14.5819 64.289 14.3729 63.7052C14.164 63.1212 13.9695 62.5325 13.7895 61.939C13.6095 61.3456 13.4441 60.748 13.2934 60.1464C13.1427 59.5448 13.0069 58.9398 12.8859 58.3316C12.7649 57.7233 12.6589 57.1124 12.5679 56.499C12.4769 55.8855 12.401 55.2701 12.3402 54.653C12.2794 54.0357 12.2338 53.4174 12.2034 52.798C12.1729 52.1785 12.1577 51.5587 12.1577 50.9385C12.1577 50.3183 12.1729 49.6985 12.2034 49.0791C12.2338 48.4596 12.2794 47.8413 12.3402 47.2241C12.401 46.6069 12.4769 45.9916 12.5679 45.3781C12.6589 44.7646 12.7649 44.1537 12.8859 43.5455C13.0069 42.9372 13.1427 42.3323 13.2934 41.7307C13.4441 41.1291 13.6095 40.5315 13.7895 39.938C13.9695 39.3446 14.164 38.7558 14.3729 38.1719C14.5819 37.588 14.805 37.0095 15.0423 36.4365C15.2797 35.8635 15.5309 35.2967 15.7961 34.7361C16.0613 34.1754 16.34 33.6216 16.6324 33.0747C16.9247 32.5277 17.2303 31.9883 17.5492 31.4563C17.868 30.9244 18.1997 30.4006 18.5443 29.8849C18.8888 29.3692 19.2458 28.8623 19.6153 28.3642C19.9847 27.866 20.3662 27.3772 20.7596 26.8978C21.153 26.4184 21.558 25.949 21.9745 25.4894C22.391 25.0299 22.8185 24.5809 23.257 24.1423C23.6956 23.7038 24.1447 23.2762 24.6042 22.8597C25.0637 22.4433 25.5332 22.0383 26.0126 21.6449C26.492 21.2514 26.9808 20.87 27.4789 20.5005C27.9771 20.1311 28.484 19.7741 28.9996 19.4295C29.5153 19.0849 30.0391 18.7532 30.571 18.4344C31.103 18.1156 31.6425 17.81 32.1894 17.5176C32.7364 17.2253 33.2902 16.9465 33.8508 16.6814C34.4115 16.4162 34.9783 16.1649 35.5513 15.9276C36.1242 15.6903 36.7027 15.4671 37.2866 15.2582C37.8706 15.0493 38.4593 14.8548 39.0528 14.6747C39.6463 14.4947 40.2438 14.3293 40.8454 14.1786C41.447 14.028 42.0519 13.8921 42.6602 13.7711C43.2685 13.6501 43.8794 13.5441 44.4929 13.4531C45.1063 13.3621 45.7217 13.2862 46.3388 13.2254C46.9561 13.1647 47.5744 13.119 48.1939 13.0886C48.8133 13.0582 49.4331 13.043 50.0533 13.043C50.6735 13.043 51.2933 13.0582 51.9127 13.0886C52.5322 13.119 53.1505 13.1647 53.7677 13.2254C54.3849 13.2862 55.0002 13.3621 55.6137 13.4531C56.2272 13.5441 56.8381 13.6501 57.4463 13.7711C58.0546 13.8921 58.6595 14.028 59.2611 14.1786C59.8627 14.3293 60.4603 14.4947 61.0538 14.6747C61.6472 14.8548 62.236 15.0493 62.8199 15.2582C63.4038 15.4671 63.9822 15.6903 64.5553 15.9276C65.1284 16.1649 65.6952 16.4162 66.2558 16.6814C66.8163 16.9465 67.3701 17.2253 67.9171 17.5176C68.4641 17.81 69.0036 18.1156 69.5357 18.4344C70.0674 18.7532 70.5911 19.0849 71.1069 19.4295C71.6227 19.7741 72.1297 20.1311 72.6278 20.5005C73.126 20.87 73.6146 21.2514 74.0938 21.6449C74.5733 22.0383 75.0428 22.4433 75.5023 22.8597C75.9618 23.2762 76.4108 23.7038 76.8493 24.1423C77.2881 24.5809 77.7157 25.0299 78.1321 25.4894C78.5485 25.949 78.9534 26.4184 79.3468 26.8978C79.7402 27.3772 80.1217 27.866 80.4913 28.3642C80.8606 28.8623 81.2175 29.3692 81.562 29.8849C81.9069 30.4006 82.2387 30.9244 82.5575 31.4563C82.8763 31.9883 83.1818 32.5277 83.4741 33.0747C83.7664 33.6216 84.0452 34.1754 84.3104 34.7361C84.5755 35.2967 84.8268 35.8635 85.0642 36.4365C85.3016 37.0095 85.5247 37.588 85.7336 38.1719C85.9425 38.7558 86.137 39.3446 86.317 39.938C86.4971 40.5315 86.6624 41.1291 86.813 41.7307C86.9639 42.3323 87.0997 42.9372 87.2204 43.5455C87.3415 44.1537 87.4476 44.7646 87.5388 45.3781C87.6297 45.9916 87.7055 46.6069 87.7662 47.2241C87.8273 47.8413 87.8729 48.4596 87.9031 49.0791C87.9336 49.6985 87.9488 50.3183 87.9488 50.9385ZM84.8968 50.9385C84.8968 50.3683 84.8828 49.7984 84.8546 49.2289C84.8268 48.6593 84.7849 48.0907 84.729 47.5232C84.673 46.9557 84.6033 46.39 84.5199 45.8259C84.4362 45.2619 84.3387 44.7002 84.2274 44.1409C84.1162 43.5816 83.9912 43.0254 83.8525 42.4722C83.7142 41.9191 83.5621 41.3697 83.3963 40.824C83.2308 40.2783 83.0521 39.737 82.8601 39.2001C82.6679 38.6632 82.4627 38.1313 82.2447 37.6045C82.0263 37.0776 81.7952 36.5565 81.5514 36.041C81.3075 35.5255 81.0513 35.0163 80.7827 34.5134C80.5138 34.0105 80.2327 33.5145 79.9394 33.0254C79.6464 32.5362 79.3415 32.0546 79.0248 31.5805C78.7077 31.1063 78.3795 30.6402 78.04 30.1822C77.7002 29.7242 77.3494 29.2748 76.9876 28.834C76.6258 28.3932 76.2534 27.9615 75.8706 27.539C75.4877 27.1165 75.0947 26.7036 74.6915 26.3004C74.2883 25.8972 73.8754 25.5041 73.4529 25.1211C73.0304 24.7382 72.5987 24.3659 72.1578 24.0041C71.717 23.6423 71.2675 23.2916 70.8094 22.9519C70.3516 22.6122 69.8856 22.284 69.4115 21.9671C68.9371 21.6503 68.4554 21.3454 67.9664 21.0522C67.4774 20.759 66.9815 20.4781 66.4786 20.2092C65.9757 19.9404 65.4665 19.6841 64.9511 19.4403C64.4353 19.1965 63.9141 18.9655 63.3874 18.7473C62.8605 18.529 62.3286 18.3239 61.7917 18.1318C61.2548 17.9397 60.7135 17.7608 60.1678 17.5953C59.6221 17.4298 59.0727 17.2777 58.5196 17.1392C57.9664 17.0006 57.4102 16.8757 56.8509 16.7645C56.2916 16.6532 55.7299 16.5558 55.1659 16.4721C54.6018 16.3884 54.0361 16.3186 53.4686 16.2627C52.9011 16.2068 52.3325 16.1649 51.763 16.1369C51.1934 16.1089 50.6235 16.095 50.0533 16.095C49.483 16.095 48.9131 16.1089 48.3436 16.1369C47.774 16.1649 47.2055 16.2068 46.638 16.2627C46.0705 16.3186 45.5047 16.3884 44.9407 16.4721C44.3766 16.5558 43.8149 16.6532 43.2556 16.7645C42.6963 16.8757 42.1401 17.0006 41.587 17.1392C41.0338 17.2777 40.4844 17.4298 39.9387 17.5953C39.393 17.7608 38.8517 17.9397 38.3148 18.1318C37.7779 18.3239 37.2461 18.529 36.7192 18.7473C36.1924 18.9655 35.6712 19.1965 35.1557 19.4403C34.6402 19.6841 34.131 19.9404 33.6281 20.2092C33.1252 20.4781 32.6292 20.759 32.1401 21.0522C31.651 21.3454 31.1693 21.6503 30.6952 21.9671C30.2211 22.284 29.755 22.6122 29.297 22.9519C28.8389 23.2916 28.3895 23.6423 27.9488 24.0041C27.508 24.3659 27.0763 24.7382 26.6538 25.1211C26.2312 25.5041 25.8184 25.8972 25.4152 26.3004C25.0119 26.7036 24.6188 27.1165 24.2359 27.539C23.8529 27.9615 23.4806 28.3932 23.1188 28.834C22.7571 29.2748 22.4063 29.7242 22.0667 30.1822C21.727 30.6403 21.3987 31.1063 21.0819 31.5805C20.7651 32.0546 20.4601 32.5362 20.167 33.0254C19.8738 33.5145 19.5928 34.0105 19.324 34.5134C19.0552 35.0163 18.7989 35.5255 18.555 36.041C18.3113 36.5565 18.0803 37.0776 17.862 37.6045C17.6438 38.1313 17.4386 38.6632 17.2465 39.2001C17.0544 39.737 16.8756 40.2783 16.7101 40.824C16.5445 41.3697 16.3925 41.9191 16.2539 42.4723C16.1154 43.0254 15.9905 43.5816 15.8792 44.1409C15.768 44.7002 15.6705 45.2619 15.5868 45.8259C15.5032 46.39 15.4334 46.9557 15.3775 47.5232C15.3216 48.0907 15.2797 48.6593 15.2517 49.2289C15.2237 49.7984 15.2097 50.3683 15.2097 50.9385C15.2097 51.5088 15.2237 52.0787 15.2517 52.6482C15.2797 53.2178 15.3216 53.7863 15.3775 54.3538C15.4334 54.9213 15.5032 55.4871 15.5868 56.0511C15.6705 56.6152 15.768 57.1769 15.8792 57.7362C15.9905 58.2955 16.1154 58.8517 16.2539 59.4048C16.3925 59.958 16.5445 60.5074 16.7101 61.0531C16.8756 61.5988 17.0544 62.1401 17.2465 62.6769C17.4386 63.2139 17.6438 63.7458 17.862 64.2727C18.0803 64.7993 18.3113 65.3205 18.555 65.8363C18.7989 66.3518 19.0552 66.8609 19.324 67.3638C19.5928 67.8667 19.8738 68.3627 20.167 68.8517C20.4601 69.3407 20.7651 69.8224 21.0819 70.2968C21.3987 70.7709 21.727 71.2368 22.0667 71.6946C22.4063 72.1527 22.7571 72.6022 23.1188 73.0431C23.4806 73.4839 23.8529 73.9156 24.2359 74.3382C24.6188 74.7607 25.0119 75.1735 25.4152 75.5767C25.8184 75.9799 26.2312 76.373 26.6538 76.7558C27.0763 77.1387 27.508 77.511 27.9488 77.8729C28.3895 78.2347 28.8389 78.5855 29.297 78.9253C29.755 79.2647 30.2211 79.593 30.6952 79.9101C31.1693 80.2268 31.651 80.5317 32.1401 80.8246C32.6292 81.118 33.1252 81.3991 33.6281 81.668C34.131 81.9366 34.6402 82.1928 35.1557 82.4366C35.6712 82.6804 36.1924 82.9115 36.7192 83.1299C37.2461 83.348 37.7779 83.5531 38.3148 83.7454C38.8517 83.9373 39.393 84.1161 39.9387 84.2815C40.4844 84.4473 41.0338 84.5994 41.587 84.7378C42.1401 84.8765 42.6963 85.0015 43.2556 85.1127C43.8149 85.2239 44.3766 85.3214 44.9407 85.4052C45.5047 85.4886 46.0705 85.5583 46.638 85.6142C47.2055 85.6702 47.774 85.7121 48.3436 85.7399C48.9131 85.768 49.483 85.7821 50.0533 85.7821C50.6235 85.7821 51.1934 85.768 51.763 85.7399C52.3325 85.7121 52.9011 85.6702 53.4686 85.6142C54.0361 85.5583 54.6018 85.4886 55.1659 85.4052C55.7299 85.3214 56.2916 85.2239 56.8509 85.1127C57.4102 85.0015 57.9664 84.8765 58.5196 84.7378C59.0727 84.5994 59.6221 84.4473 60.1678 84.2815C60.7135 84.1161 61.2548 83.9373 61.7917 83.7454C62.3286 83.5531 62.8605 83.348 63.3874 83.1299C63.9141 82.9115 64.4353 82.6804 64.9511 82.4366C65.4665 82.1928 65.9757 81.9366 66.4786 81.668C66.9815 81.3991 67.4774 81.118 67.9664 80.8246C68.4554 80.5317 68.9371 80.2268 69.4115 79.9101C69.8856 79.593 70.3516 79.2647 70.8094 78.9253C71.2675 78.5855 71.717 78.2347 72.1578 77.8729C72.5987 77.511 73.0304 77.1387 73.4529 76.7558C73.8754 76.373 74.2883 75.9799 74.6915 75.5767C75.0947 75.1735 75.4877 74.7607 75.8706 74.3382C76.2534 73.9156 76.6258 73.4839 76.9876 73.0431C77.3494 72.6022 77.7002 72.1527 78.04 71.6946C78.3795 71.2368 78.7077 70.7709 79.0248 70.2968C79.3415 69.8224 79.6464 69.3407 79.9394 68.8517C80.2327 68.3627 80.5138 67.8667 80.7827 67.3638C81.0513 66.8609 81.3075 66.3518 81.5514 65.8363C81.7952 65.3205 82.0263 64.7993 82.2447 64.2727C82.4627 63.7458 82.6679 63.2139 82.8601 62.6769C83.0521 62.1401 83.2308 61.5988 83.3963 61.0531C83.5621 60.5074 83.7142 59.958 83.8525 59.4048C83.9912 58.8517 84.1162 58.2955 84.2274 57.7362C84.3387 57.1769 84.4362 56.6152 84.5199 56.0511C84.6033 55.4871 84.673 54.9213 84.729 54.3538C84.7849 53.7863 84.8268 53.2178 84.8546 52.6482C84.8828 52.0787 84.8968 51.5088 84.8968 50.9385Z" fill="#FFDC00"/>
    </g>
    <g filter="url(#4i3t4u4s9__18h41opkqg)">
      <path d="M31.25 51L49.9567 32.25L68.6633 51L49.9567 69.75L31.25 51ZM53.9682 55.1896L49.9464 59.2347L49.9464 68.522L67.4155 51L49.9567 33.4883L49.9567 41.5063L45.9039 45.6237L45.9039 55.1586L53.9682 47.0374L53.9682 55.1896L53.9682 55.1896Z" fill="#FFF" fill-opacity=".80000001" fill-rule="evenodd"/>
    </g>
  </g>
</svg>
